<svg xmlns="http://www.w3.org/2000/svg" viewBox="0 0 100 100" width="100" height="100">
  <!-- Background circle -->
  <circle cx="50" cy="50" r="45" fill="#3b82f6"/>

  <!-- Cloud shape -->
  <path d="M70 55c5.5 0 10-4.5 10-10s-4.5-10-10-10c-1 0-2 .2-3 .5C65.5 28 58.5 23 50 23c-11 0-20 9-20 20 0 .7 0 1.3.1 2C24.5 46.5 20 51.5 20 58c0 7.2 5.8 13 13 13h37c5.5 0 10-4.5 10-10 0-3.5-1.8-6.5-4.5-8.3" fill="white" opacity="0.9"/>

  <!-- Upload arrow -->
  <path d="M50 35 L50 60 M40 45 L50 35 L60 45" stroke="#3b82f6" stroke-width="5" stroke-linecap="round" stroke-linejoin="round" fill="none"/>

  <!-- Sync arrows at bottom -->
  <path d="M35 72 C30 72 28 68 30 65" stroke="white" stroke-width="3" stroke-linecap="round" fill="none"/>
  <path d="M30 65 L33 68 L27 68 Z" fill="white"/>

  <path d="M65 72 C70 72 72 68 70 65" stroke="white" stroke-width="3" stroke-linecap="round" fill="none"/>
  <path d="M70 65 L67 68 L73 68 Z" fill="white"/>
</svg>
