<?xml version="1.0" encoding="UTF-8"?>
<svg xmlns="http://www.w3.org/2000/svg" width="256" height="256" viewBox="0 0 256 256" role="img" aria-label="IPMI">
  <rect x="52" y="52" width="152" height="152" rx="28" fill="#007bff"/>
  <rect x="88" y="88" width="80" height="80" rx="18" fill="#ffffff" opacity="0.25"/>
  <rect x="100" y="100" width="56" height="56" rx="12" fill="#ffffff" opacity="0.2"/>

  <!-- pins -->
  <g fill="#0056b3">
    <rect x="38" y="86" width="14" height="20" rx="4"/>
    <rect x="38" y="118" width="14" height="20" rx="4"/>
    <rect x="38" y="150" width="14" height="20" rx="4"/>

    <rect x="204" y="86" width="14" height="20" rx="4"/>
    <rect x="204" y="118" width="14" height="20" rx="4"/>
    <rect x="204" y="150" width="14" height="20" rx="4"/>

    <rect x="86" y="38" width="20" height="14" rx="4"/>
    <rect x="118" y="38" width="20" height="14" rx="4"/>
    <rect x="150" y="38" width="20" height="14" rx="4"/>

    <rect x="86" y="204" width="20" height="14" rx="4"/>
    <rect x="118" y="204" width="20" height="14" rx="4"/>
    <rect x="150" y="204" width="20" height="14" rx="4"/>
  </g>

  <!-- center details -->
  <g fill="none" stroke="#ffffff" stroke-width="10" stroke-linecap="round" opacity="0.85">
    <path d="M112 128h32"/>
    <path d="M128 112v32"/>
  </g>
</svg>
