<svg xmlns="http://www.w3.org/2000/svg" viewBox="0 0 182 182" role="img" aria-label="Wagtail">
  <circle cx="90.455" cy="61.735" r="60" fill="#fff" opacity=".1"/>
  <path fill="#fff" d="M112.664 70.424c-4.833-7.31-13.017-12.154-22.33-12.154a26.65 26.65 0 0 0-8.822 1.497 17.468 17.468 0 0 1-2.326-8.742c0-9.76 7.674-17.597 17.23-17.597 2.461 0 4.633.444 6.66 1.331 1.005-1.466 2.01-3.223 3.015-5.415 4.094 2.34 11.395 8.565 12.244 19.084l-8.076 11.932 2.405 10.064Z"/>
  <path fill="#000" d="m28.802 131.528 5.021 10.519-1.004-17.531-4.017 7.012Z"/>
  <path fill="#000" d="m13.017 135.605 53.466-94.037C70.754 31.772 80.373 25 91.493 25c5.357 0 10.424 1.479 14.623 4.288-1.013 2.218-2.027 3.993-3.04 5.471-2.027-.887-4.199-1.33-6.66-1.33-9.556 0-17.23 7.836-17.23 17.596 0 3.226.861 6.188 2.326 8.742a26.65 26.65 0 0 1 8.823-1.497c14.913 0 26.93 12.421 26.93 27.503 0 .632-.105 1.263-.226 1.987l-.063.38h.144c-.072.517-.181 1.034-.289 1.552a23.508 23.508 0 0 0-.29 1.553v.147c-10.07 52.452-73.03 51.327-82.782 50.875l.064-.22-1.004-17.531-3.957 6.97-15.845 4.119Z"/>
  <path fill="#fff" d="m57.612 122.445-1.158.887s38.514-6.358 44.595-38.741l-6.081 2.07s-1.593 25.137-37.356 35.784Z"/>
  <path fill="#000" d="M107.275 49.398c1.919 0 3.475-1.589 3.475-3.549s-1.556-3.549-3.475-3.549-3.475 1.59-3.475 3.55c0 1.96 1.556 3.548 3.475 3.548ZM118.279 48.511l-6.805 10.35h18.388l-11.583-10.35ZM32.819 124.516.687 181.115l24.099-8.014 9.037-31.054-1.004-17.531Z"/>
</svg>
